# xmcd
#
# Track frame offsets:
#	150
#	17432
#	38221
#	56329
#	81579
#	99023
#	119249
#	139496
#	161018
#	178421
#
# Disc length: 2632 seconds
#
# Revision: 1
# Processed by: cddbd v1.5PL3 Copyright (c) Steve Scherf et al.
# Submitted via: audiograbber 1.83.01
#
DISCID=890a460a
DTITLE=Kim Costanza - Soul Journey
DYEAR=1900
DGENRE=Soul
TTITLE0=There's Something About That Name - All Hail the Power
TTITLE1=Spirit Song
TTITLE2=It Is Well With My Soul
TTITLE3=I Worship You - As The Deer
TTITLE4=Be Thou My Vision - Come Thou Fount
TTITLE5=When I Survey - Near The Cross
TTITLE6=Holy, Holy, Holy - Hosanna
TTITLE7=Nothing But The Blood - There Is A Redeemer
TTITLE8=There Shall Be Showers Of Blessings
TTITLE9=Tis So Sweet To Trust In Jesus
EXTD=
EXTT0=
EXTT1=
EXTT2=
EXTT3=
EXTT4=
EXTT5=
EXTT6=
EXTT7=
EXTT8=
EXTT9=
PLAYORDER=
